<?xml version="1.0" encoding="utf-8"?>
<!-- Generator: Adobe Illustrator 17.0.0, SVG Export Plug-In . SVG Version: 6.00 Build 0)  -->
<!DOCTYPE svg PUBLIC "-//W3C//DTD SVG 1.1//EN" "http://www.w3.org/Graphics/SVG/1.1/DTD/svg11.dtd">
<svg version="1.1" id="Layer_1" xmlns="http://www.w3.org/2000/svg" xmlns:xlink="http://www.w3.org/1999/xlink" x="0px" y="0px"
	 width="4427.009px" height="1915.93px" viewBox="0 0 4427.009 1915.93" enable-background="new 0 0 4427.009 1915.93"
	 xml:space="preserve">
<g>
	<polygon points="1718.103,1550.043 1718.103,1592.937 1747.161,1592.937 1747.161,1550.043 1757.828,1550.043 1757.828,1649.09 
		1747.161,1649.09 1747.161,1601.898 1718.103,1601.898 1718.103,1649.09 1707.313,1649.09 1707.313,1550.043 	"/>
	<path d="M1830.686,1579.973c-1.444-15.626-6.368-22.203-14.738-22.203c-12.441,0-17.889,10.962-17.889,41.901
		c0,30.852,5.447,41.762,17.889,41.762c9.988,0,15.817-6.786,16.026-25.267h10.823c-0.348,21.961-9.952,34.385-26.85,34.385
		c-17.696,0-28.555-13.398-28.555-50.88c0-37.517,10.858-50.897,28.555-50.897c14.738,0,23.822,10.145,25.405,31.199H1830.686z"/>
	<polygon points="1887.865,1550.043 1905.109,1624.989 1905.302,1624.989 1922.216,1550.043 1939.303,1550.043 1939.303,1649.09 
		1929.331,1649.09 1929.331,1558.396 1929.07,1558.396 1908.468,1649.09 1901.438,1649.09 1880.94,1558.396 1880.696,1558.396 
		1880.696,1649.09 1870.813,1649.09 1870.813,1550.043 	"/>
	<path d="M2011.273,1579.973c-1.288-15.626-6.282-22.203-14.688-22.203c-12.493,0-17.922,10.962-17.922,41.901
		c0,30.852,5.429,41.762,17.922,41.762c10.094,0,15.87-6.786,16.079-25.267h10.72c-0.262,21.961-9.849,34.385-26.799,34.385
		c-17.644,0-28.71-13.398-28.71-50.88c0-37.517,11.066-50.897,28.71-50.897c14.688,0,23.771,10.145,25.406,31.199H2011.273z"/>
	<rect x="2087.28" y="1608.945" width="33.688" height="9.17"/>
	<polygon points="2182.567,1550.043 2200.004,1628.626 2200.353,1628.626 2217.647,1550.043 2228.437,1550.043 2205.05,1649.09 
		2195.271,1649.09 2171.988,1550.043 	"/>
	<rect x="2254.816" y="1550.113" width="10.824" height="99.063"/>
	<polygon points="2343.092,1550.043 2343.092,1559.126 2308.499,1559.126 2308.499,1592.937 2334.043,1592.937 2334.043,1601.898 
		2308.499,1601.898 2308.499,1640.076 2344.832,1640.076 2344.832,1649.09 2297.866,1649.09 2297.866,1550.043 	"/>
	<polygon points="2415.846,1550.043 2415.846,1559.126 2395.573,1559.126 2395.573,1649.09 2384.889,1649.09 2384.889,1559.126 
		2364.529,1559.126 2364.529,1550.043 	"/>
	<polygon points="2456.459,1550.043 2482.056,1623.022 2482.299,1623.022 2482.299,1550.043 2493.036,1550.043 2493.036,1649.09 
		2481.464,1649.09 2450.734,1562.955 2450.386,1562.955 2450.386,1649.09 2439.754,1649.09 2439.754,1550.043 	"/>
	<path d="M2554.374,1550.043l21.733,99.047h-10.719l-5.882-29.32h-25.162l-5.968,29.32h-10.719l21.786-99.047H2554.374z
		 M2535.686,1610.737h22.378l-11.016-53.281h-0.348L2535.686,1610.737z"/>
	<polygon points="2615.991,1550.043 2633.304,1624.989 2633.479,1624.989 2650.393,1550.043 2667.445,1550.043 2667.445,1649.09 
		2657.614,1649.09 2657.614,1558.396 2657.214,1558.396 2636.716,1649.09 2629.634,1649.09 2609.117,1558.396 2608.77,1558.396 
		2608.77,1649.09 2598.955,1649.09 2598.955,1550.043 	"/>
	<path d="M3403.001,1347.913c17.802-24.743,23.56-44.894,23.56-104.057V571.519c0-59.024-4.784-73.258-23.56-103.884h463.282
		v145.228c-34.296-22.361-57.927-31.827-101.708-31.827h-224.491v146.499h272.917v114.621h-272.917v391.156h272.917
		c41.362,0,68.543-7.117,102.91-30.73v145.332H3403.001z M1121.18,467.635h187.895c-93.304,95.636-96.871,184.276-96.871,241.038
		c0,203.209,131.116,334.342,296.53,446.63V571.519c0-59.024-5.882-73.258-24.9-103.884h160.819
		c-17.801,30.625-22.534,44.86-22.534,103.884v679.49c0,41.431,3.654,80.339,23.665,105.118l-1.131,2.437
		c-319.012-150.066-555.403-353.256-555.403-636.91C1089.249,583.334,1147.073,564.488,1121.18,467.635 M1998.014,1360.93
		c-62.661,0-126.505-20.116-193.881-53.16c-21.195-10.667-41.362-22.43-77.991-36.699l92.225-128.731
		c37.813,61.391,115.716,99.29,187.913,99.29c91.024-2.488,161.898-57.945,151.18-157.235
		c-5.935-57.911-40.127-113.384-150.049-211.457c-77.991-70.96-173.661-150.135-178.464-258.821
		C1825.431,519.577,1902.238,451,2006.279,451c46.061,0,80.253,11.902,111.053,26.101c18.775,9.397,30.644,16.426,55.597,27.041
		l-74.372,100.542c-34.402-29.651-56.85-47.365-86.448-47.365c-34.245,0-63.757,21.333-59.059,56.797
		c8.3,60.277,82.724,115.821,157.165,185.546c115.838,109.765,180.778,190.245,184.433,291.831
		C2299.312,1246.31,2179.993,1360.93,1998.014,1360.93 M3094.708,1347.913c18.862-30.765,24.605-44.894,24.605-104.057v-214.972
		L2859.447,668.39v575.467c0,59.163,3.55,73.292,22.343,104.057h-159.532c20.116-30.765,22.534-44.894,22.534-104.057V571.519
		c0-59.024-3.566-73.258-22.534-103.884h183.268c-3.516,9.466-7.082,19.993-7.082,33.027c0,20.046,8.265,38.96,18.932,55.509
		l200.842,282.452h1.097V571.519c0-59.024-4.698-73.258-24.605-103.884h160.506c-17.575,30.625-22.43,44.86-22.43,103.884v672.338
		c0,59.163,5.986,73.292,22.43,104.057H3094.708z M2399.731,1347.913c20.203-30.765,22.534-44.894,22.534-104.057V571.519
		c0-59.024-4.733-73.258-22.534-103.884h159.532c-17.697,30.625-22.431,44.86-22.431,103.884v672.338
		c0,59.163,2.315,73.292,22.431,104.057H2399.731z M422.845,1347.913c12.946-22.429,22.326-30.765,22.326-104.057V571.519
		c0-40.162-2.28-73.258-22.326-103.884h167.728c-16.514,30.625-30.748,63.722-30.748,103.884v661.793h269.401
		c30.8,0,65.098-10.685,102.91-30.73v145.332H422.845z M940.279,538.439c0-38.96-30.625-69.69-68.49-69.69
		c-38.943,0-69.691,30.73-69.691,69.69c0,30.713,20.168,56.763,48.427,66.245c-2.366,11.816-4.733,21.265-10.615,37.76
		c-7.064,18.897-14.182,33.097-18.827,44.895l1.183,1.183C869.458,656.575,940.279,602.353,940.279,538.439"/>
</g>
</svg>
