<?xml version="1.0" encoding="utf-8"?>
<!-- Generator: Adobe Illustrator 17.0.0, SVG Export Plug-In . SVG Version: 6.00 Build 0)  -->
<!DOCTYPE svg PUBLIC "-//W3C//DTD SVG 1.1//EN" "http://www.w3.org/Graphics/SVG/1.1/DTD/svg11.dtd">
<svg version="1.1" xmlns="http://www.w3.org/2000/svg" xmlns:xlink="http://www.w3.org/1999/xlink" x="0px" y="0px"
	 width="196.092px" height="170.432px" viewBox="0 0 196.092 170.432" enable-background="new 0 0 196.092 170.432"
	 xml:space="preserve">
<g id="Layer_3">
</g>
<g id="Layer_2">
	<g>
		<path fill="#FFFFFF" d="M76.356,156.582c-0.152,0.183-0.291,0.37-0.42,0.579c-0.483,0.796-0.961,1.576-1.439,2.355
			c-0.227,0.379-0.812,1.307-1.752,2.822c-0.532,0.88-1.019,1.639-1.412,2.28c-0.122,0.193-0.209,0.333-0.251,0.402
			c-0.115,0.214-0.203,0.404-0.258,0.555c-0.09,0.24-0.138,0.461-0.125,0.655l-2.54-0.944c0.085-0.089,0.175-0.193,0.255-0.317
			c0.08-0.124,0.137-0.274,0.198-0.439c0.05-0.136,0.1-0.271,0.135-0.412c0.036-0.14,0.057-0.287,0.093-0.428
			c0.098-0.544,0.244-1.396,0.442-2.571c0.23-1.403,0.416-2.498,0.538-3.289c0.154-0.918,0.307-1.837,0.451-2.776
			c0.052-0.322,0.078-0.621,0.051-0.87c-0.007-0.259-0.046-0.479-0.115-0.658l2.269,0.844c-0.125,0.106-0.247,0.249-0.37,0.443
			c-0.109,0.2-0.197,0.39-0.281,0.614c-0.033,0.091-0.067,0.181-0.085,0.277c-0.038,0.105-0.051,0.185-0.059,0.251
			c-0.101,0.545-0.204,1.19-0.325,1.932c-0.259,1.615-0.421,2.649-0.507,3.113c-0.199,1.225-0.343,1.976-0.392,2.248
			c0.184-0.358,0.557-0.99,1.121-1.908c0.563-0.92,1.112-1.845,1.685-2.744c0.361-0.6,0.721-1.151,1.033-1.668
			c0.105-0.148,0.199-0.354,0.283-0.58c0.079-0.21,0.137-0.41,0.173-0.602c0.037-0.192,0.032-0.364,0.009-0.527l2.223,0.827
			C76.766,156.171,76.562,156.351,76.356,156.582"/>
		<path fill="#FFFFFF" d="M75.268,167.625c0.191-0.167,0.327-0.38,0.437-0.617c0.055-0.151,0.126-0.365,0.196-0.645l2.198-8.705
			c0.071-0.28,0.11-0.501,0.13-0.645c0.025-0.292-0.01-0.548-0.087-0.766l2.066,0.521c-0.175,0.171-0.306,0.369-0.394,0.58
			c-0.102,0.205-0.175,0.435-0.238,0.683l-2.199,8.705c-0.065,0.264-0.101,0.47-0.126,0.63c-0.015,0.26,0.016,0.532,0.084,0.782
			L75.268,167.625z"/>
		<path fill="#FFFFFF" d="M96.931,159.774c-0.385,0.319-0.84,0.458-1.338,0.436l-1.248-0.057l-0.409,8.888
			c-0.013,0.272-0.006,0.481,0.018,0.643c0.036,0.258,0.105,0.518,0.222,0.748l-2.129-0.098c0.152-0.201,0.245-0.438,0.304-0.692
			c0.039-0.158,0.066-0.382,0.079-0.671l0.411-8.936l-1.425-0.065c-0.416-0.019-0.888,0.103-1.397,0.369l0.085-1.842l5.989,0.275
			c0.288,0.014,0.564-0.021,0.855-0.073c0.032,0.002,0.227-0.053,0.616-0.132C97.541,159.048,97.33,159.456,96.931,159.774"/>
		<path fill="#FFFFFF" d="M104.307,170.132c0.131-0.216,0.214-0.462,0.231-0.72c0.023-0.162,0.025-0.387,0.01-0.675l-0.166-2.864
			l-3.736-4.602l0.445,7.666c0.015,0.272,0.042,0.48,0.068,0.639c0.063,0.253,0.174,0.504,0.316,0.72l-2.13,0.124
			c0.132-0.217,0.198-0.462,0.232-0.72c0.006-0.161,0.01-0.387-0.007-0.675l-0.519-8.962c-0.017-0.289-0.045-0.512-0.07-0.655
			c-0.064-0.285-0.175-0.52-0.314-0.705l2.433-0.14c-0.042,0.13-0.065,0.276-0.056,0.437c0.009,0.144,0.034,0.287,0.089,0.412
			c0.054,0.109,0.109,0.218,0.195,0.326c0.348,0.445,0.712,0.906,1.092,1.382c0.122,0.154,0.484,0.582,1.073,1.319
			c0.242,0.291,0.483,0.599,0.742,0.905l-0.206-3.57c-0.017-0.288-0.047-0.511-0.087-0.654c-0.064-0.285-0.158-0.52-0.313-0.704
			l2.129-0.123c-0.101,0.214-0.168,0.443-0.202,0.67c-0.02,0.226-0.022,0.467-0.007,0.723l0.519,8.963
			c0.016,0.273,0.028,0.48,0.07,0.638c0.062,0.254,0.156,0.505,0.298,0.722L104.307,170.132z"/>
		<path fill="#FFFFFF" d="M113.852,168.839c0.107-0.23,0.144-0.481,0.146-0.742c0.004-0.164-0.019-0.388-0.069-0.671l-0.384-2.163
			l-3.364,0.597c0.026,0.141,0.065,0.362,0.103,0.665c0.056,0.316,0.094,0.537,0.123,0.694c0.09,0.506,0.18,0.929,0.29,1.268
			c0.095,0.357,0.225,0.628,0.393,0.842l-2.147,0.38c0.103-0.246,0.174-0.486,0.196-0.734c0.036-0.251,0.029-0.478-0.01-0.699
			l-0.308-1.736c-0.238-1.342-0.189-2.718,0.132-4.127c0.317-1.424,0.884-2.632,1.705-3.607c0.853-1.063,1.789-1.669,2.767-1.843
			c0.063-0.01,0.141-0.025,0.189-0.033s0.142-0.025,0.29-0.018c-0.09,0.227-0.133,0.446-0.128,0.657
			c0.007,0.226,0.016,0.453,0.061,0.705l1.575,8.889c0.047,0.268,0.1,0.471,0.16,0.623c0.091,0.244,0.215,0.482,0.38,0.681
			L113.852,168.839z M112.417,158.901c-0.487,0.379-0.908,0.942-1.285,1.661c-0.313,0.625-0.547,1.317-0.723,2.081
			c-0.165,0.632-0.241,1.215-0.257,1.756l3.141-0.557L112.417,158.901z"/>
		<path fill="#FFFFFF" d="M80.432,168.869c0.174-0.187,0.29-0.409,0.376-0.654c0.044-0.16,0.094-0.377,0.139-0.664l1.399-8.888
			c0.045-0.285,0.064-0.513,0.069-0.655c-0.002-0.292-0.058-0.545-0.153-0.756l6.106,0.961l-0.302,1.918
			c-0.212-0.194-0.402-0.336-0.552-0.409c-0.179-0.111-0.424-0.18-0.729-0.228l-2.951-0.464l-0.305,1.943l3.596,0.565l-0.238,1.508
			l-3.596-0.566l-0.813,5.164l3.601,0.567c0.335,0.053,0.627,0.051,0.895-0.005c0.056-0.027,0.244-0.088,0.52-0.194l-0.302,1.921
			L80.432,168.869z"/>
		<path fill="#FFFFFF" d="M127.19,163.531l-2.961-8.461c-0.086-0.246-0.152-0.475-0.178-0.706c-0.046-0.219-0.04-0.458,0.005-0.699
			l-0.005,0.001l-2.005,0.702l-0.474,0.165c0.001,0.322-0.066,0.604-0.186,0.841l-0.709,1.895l-1.658-1.097
			c-0.124-0.056-0.232-0.136-0.33-0.219c-0.122-0.096-0.206-0.199-0.283-0.31l-0.46,0.16l-1.999,0.7l-0.013,0.005
			c0.184,0.141,0.356,0.336,0.504,0.598c0.054,0.128,0.149,0.33,0.245,0.605l2.962,8.461c0.097,0.279,0.149,0.494,0.192,0.644
			c0.035,0.263,0.044,0.517-0.027,0.764l2.012-0.704c-0.194-0.177-0.37-0.384-0.501-0.607c-0.069-0.143-0.15-0.335-0.241-0.599
			l-2.861-8.172l3.165,1.79l1.461-3.481l0.028-0.013l2.884,8.239c0.098,0.278,0.15,0.493,0.192,0.643
			c0.036,0.264,0.044,0.518-0.028,0.765l2.01-0.704c-0.192-0.177-0.367-0.385-0.499-0.607
			C127.364,163.986,127.283,163.795,127.19,163.531"/>
		<path fill="#FFFFFF" d="M62.628,47.693c-0.488,1.259-1.424,2.107-2.814,2.565c-1.318,0.433-2.51,0.299-3.606-0.391
			c-1.099-0.705-1.917-1.846-2.436-3.429c-0.603-1.836-0.675-3.353-0.201-4.558c0.452-1.214,1.393-2.048,2.814-2.514
			c1.375-0.453,2.607-0.348,3.687,0.346c1.091,0.675,1.913,1.88,2.476,3.597C63.099,44.982,63.121,46.45,62.628,47.693
			 M59.382,41.054c-0.814-0.585-1.691-0.707-2.667-0.387c-0.963,0.316-1.582,0.979-1.833,2.012c-0.234,0.93-0.145,1.999,0.251,3.213
			c0.365,1.11,0.924,1.959,1.669,2.534c0.816,0.634,1.687,0.791,2.62,0.485c0.991-0.326,1.62-1.008,1.901-2.05
			c0.26-0.955,0.185-2.03-0.204-3.214C60.735,42.479,60.157,41.619,59.382,41.054"/>
		<path fill="#FFFFFF" d="M71.256,45.847c-1.231-0.495-2.246-1.177-3.044-2.047c-0.912-0.958-1.491-2.08-1.753-3.362
			c-0.226-1.098-0.078-2.083,0.416-2.931c0.51-0.852,1.261-1.372,2.253-1.575c0.29-0.06,0.565-0.116,0.828-0.154
			c0.787-0.113,1.22-0.17,1.327-0.192l0.401,1.953c-0.383-0.161-0.737-0.262-1.031-0.297c-0.309-0.033-0.653-0.01-1.021,0.066
			c-0.64,0.13-1.112,0.466-1.4,1.002c-0.306,0.524-0.383,1.159-0.228,1.907c0.212,1.038,0.739,1.979,1.585,2.776
			c0.734,0.708,1.588,1.233,2.583,1.585c0.894,0.326,1.661,0.423,2.271,0.298l0.353,1.725C73.563,46.552,72.381,46.3,71.256,45.847"
			/>
		<path fill="#FFFFFF" d="M84.295,45.295c0.122-0.214,0.179-0.454,0.205-0.706c0.003-0.156-0.001-0.375-0.026-0.654l-0.747-8.691
			c-0.023-0.28-0.058-0.495-0.085-0.634c-0.071-0.275-0.183-0.499-0.324-0.675l2.063-0.178c-0.105,0.213-0.166,0.437-0.177,0.657
			c-0.029,0.221-0.024,0.455-0.003,0.703l0.749,8.691c0.021,0.263,0.055,0.464,0.083,0.618c0.069,0.245,0.183,0.485,0.326,0.692
			L84.295,45.295z"/>
		<path fill="#FFFFFF" d="M101.211,44.786c0.148-0.197,0.236-0.428,0.293-0.674c0.021-0.156,0.045-0.373,0.056-0.653l0.351-8.716
			c0.011-0.28,0.004-0.499-0.005-0.639c-0.037-0.282-0.12-0.519-0.238-0.712l2.071,0.084c-0.133,0.198-0.22,0.412-0.26,0.628
			c-0.056,0.216-0.08,0.45-0.09,0.699l-0.35,8.715c-0.011,0.265-0.003,0.468,0.007,0.624c0.036,0.251,0.12,0.504,0.236,0.727
			L101.211,44.786z"/>
		<path fill="#FFFFFF" d="M109.621,45.322c0.157-0.19,0.271-0.415,0.322-0.66c0.045-0.153,0.08-0.369,0.103-0.648l0.239-2.778
			l-2.953-4.944l-0.639,7.434c-0.022,0.264-0.024,0.467-0.022,0.623c0.025,0.253,0.098,0.509,0.203,0.737l-2.063-0.177
			c0.156-0.19,0.254-0.417,0.322-0.661c0.028-0.153,0.062-0.369,0.086-0.649l0.746-8.69c0.025-0.28,0.029-0.499,0.025-0.639
			c-0.024-0.284-0.096-0.524-0.204-0.722l2.358,0.203c-0.056,0.12-0.099,0.257-0.112,0.412c-0.013,0.14-0.009,0.281,0.027,0.41
			c0.038,0.112,0.074,0.224,0.142,0.339c0.272,0.477,0.558,0.971,0.858,1.482c0.096,0.164,0.384,0.627,0.848,1.417
			c0.191,0.313,0.382,0.642,0.588,0.973l0.297-3.461c0.025-0.279,0.027-0.498,0.008-0.64c-0.022-0.283-0.08-0.523-0.204-0.722
			l2.065,0.178c-0.125,0.192-0.222,0.403-0.288,0.617c-0.05,0.214-0.085,0.446-0.107,0.694l-0.746,8.69
			c-0.021,0.265-0.04,0.466-0.021,0.624c0.025,0.252,0.081,0.507,0.186,0.735L109.621,45.322z"/>
		<path fill="#FFFFFF" d="M128.673,47.447c-0.889-0.984-1.503-2.042-1.839-3.173c-0.401-1.261-0.432-2.523-0.106-3.79
			c0.279-1.087,0.843-1.907,1.659-2.453c0.831-0.543,1.734-0.681,2.715-0.43c0.286,0.074,0.558,0.144,0.811,0.224
			c0.757,0.243,1.172,0.382,1.278,0.409l-0.495,1.931c-0.275-0.312-0.548-0.558-0.798-0.718c-0.263-0.165-0.583-0.295-0.945-0.388
			c-0.633-0.163-1.204-0.068-1.698,0.288c-0.505,0.337-0.853,0.875-1.041,1.614c-0.264,1.026-0.202,2.103,0.212,3.19
			c0.348,0.958,0.887,1.803,1.626,2.557c0.661,0.683,1.308,1.107,1.912,1.262l-0.438,1.705
			C130.438,49.09,129.487,48.347,128.673,47.447"/>
		<path fill="#FFFFFF" d="M132.461,49.851c0.196-0.151,0.34-0.349,0.46-0.573c0.062-0.144,0.143-0.347,0.228-0.613l2.651-8.312
			c0.085-0.267,0.136-0.479,0.163-0.617c0.042-0.282,0.024-0.533-0.038-0.749l1.974,0.629c-0.181,0.156-0.322,0.339-0.416,0.537
			c-0.112,0.195-0.197,0.413-0.274,0.65l-2.65,8.311c-0.079,0.252-0.126,0.449-0.159,0.602c-0.032,0.253-0.018,0.518,0.035,0.764
			L132.461,49.851z"/>
		<path fill="#FFFFFF" d="M144.934,43.277c-0.452,0.176-0.915,0.164-1.366-0.011l-1.133-0.438l-3.121,8.061
			c-0.095,0.248-0.154,0.442-0.181,0.598c-0.045,0.25-0.063,0.511-0.026,0.759l-1.932-0.748c0.203-0.138,0.361-0.328,0.495-0.544
			c0.084-0.134,0.178-0.332,0.279-0.593l3.137-8.106l-1.292-0.5c-0.378-0.147-0.849-0.179-1.401-0.092l0.647-1.67l5.433,2.103
			c0.261,0.101,0.524,0.153,0.809,0.196c0.03,0.012,0.225,0.021,0.608,0.069C145.721,42.796,145.402,43.106,144.934,43.277"/>
		<path fill="#FFFFFF" d="M53.746,50.975l-3.611-7.932c-0.108-0.238-0.18-0.458-0.239-0.674c-0.038-0.199-0.065-0.434-0.034-0.66
			l-1.897,0.864c0.203,0.11,0.371,0.289,0.534,0.52c0.081,0.117,0.189,0.302,0.305,0.556l0.883,1.939l-3.1,1.411l-0.883-1.939
			c-0.108-0.237-0.188-0.454-0.24-0.675c-0.058-0.21-0.073-0.43-0.026-0.662l-1.9,0.865c0.187,0.116,0.366,0.291,0.529,0.522
			c0.073,0.121,0.173,0.309,0.289,0.563l3.609,7.933c0.115,0.25,0.194,0.455,0.243,0.603c0.054,0.248,0.087,0.496,0.042,0.737
			l1.885-0.858c-0.199-0.146-0.393-0.328-0.542-0.541c-0.07-0.136-0.172-0.319-0.28-0.554l-2.159-4.747l3.1-1.411l2.16,4.747
			c0.114,0.25,0.185,0.458,0.225,0.61c0.08,0.237,0.083,0.498,0.04,0.739l1.885-0.859c-0.208-0.141-0.373-0.337-0.522-0.55
			C53.947,51.397,53.853,51.21,53.746,50.975"/>
		<path fill="#FFFFFF" d="M82.282,44.121l-1.156-8.637c-0.035-0.259-0.038-0.492-0.035-0.716c0.022-0.201,0.065-0.434,0.16-0.64
			l-2.065,0.276c0.161,0.164,0.271,0.385,0.359,0.653c0.044,0.136,0.094,0.344,0.132,0.62l0.282,2.112l-3.375,0.452L76.3,36.129
			c-0.034-0.258-0.049-0.489-0.034-0.715c0.005-0.217,0.055-0.432,0.167-0.642l-2.071,0.277c0.147,0.167,0.267,0.386,0.357,0.654
			c0.035,0.137,0.076,0.346,0.114,0.623l1.156,8.638c0.036,0.273,0.051,0.492,0.056,0.647c-0.019,0.253-0.059,0.5-0.172,0.718
			l2.052-0.275c-0.148-0.197-0.281-0.427-0.362-0.675c-0.028-0.15-0.073-0.355-0.107-0.611l-0.692-5.169l3.376-0.452l0.692,5.169
			c0.038,0.272,0.044,0.492,0.039,0.649c0.008,0.25-0.066,0.501-0.175,0.718l2.051-0.274c-0.157-0.196-0.259-0.431-0.339-0.678
			C82.353,44.583,82.317,44.378,82.282,44.121"/>
		<path fill="#FFFFFF" d="M119.949,45.335l1.318-8.615c0.04-0.258,0.1-0.482,0.169-0.696c0.076-0.187,0.183-0.399,0.333-0.57
			l-2.061-0.315c0.11,0.202,0.153,0.445,0.161,0.727c0.005,0.143-0.005,0.356-0.049,0.633l-0.322,2.105l-3.366-0.514l0.322-2.107
			c0.039-0.257,0.091-0.483,0.168-0.695c0.067-0.208,0.174-0.4,0.341-0.569l-2.065-0.316c0.094,0.2,0.148,0.444,0.158,0.726
			c-0.005,0.142-0.023,0.355-0.065,0.63l-1.319,8.615c-0.041,0.272-0.089,0.486-0.127,0.638c-0.091,0.237-0.198,0.462-0.368,0.639
			l2.048,0.314c-0.089-0.232-0.151-0.489-0.158-0.75c0.015-0.152,0.029-0.361,0.069-0.617l0.789-5.154l3.367,0.515l-0.789,5.154
			c-0.042,0.273-0.096,0.485-0.145,0.635c-0.064,0.242-0.204,0.462-0.37,0.639l2.046,0.314c-0.098-0.233-0.128-0.486-0.137-0.747
			C119.887,45.798,119.91,45.59,119.949,45.335"/>
		<path fill="#FFFFFF" d="M99.202,43.372l-0.098-8.741c-0.001-0.255,0.009-0.487,0.058-0.708c0.024-0.218,0.104-0.435,0.222-0.645
			h-0.005l-2.072,0.023l-0.49,0.006c-0.098,0.297-0.249,0.536-0.434,0.718l-1.245,1.53l-1.192-1.53
			c-0.097-0.09-0.172-0.198-0.236-0.306c-0.082-0.126-0.129-0.249-0.166-0.376l-0.474,0.005l-2.065,0.023l-0.013,0.001
			c0.125,0.188,0.225,0.423,0.279,0.71c0.01,0.135,0.034,0.352,0.037,0.635l0.098,8.743c0.004,0.287-0.015,0.503-0.022,0.656
			c-0.05,0.254-0.121,0.491-0.264,0.697l2.078-0.023c-0.123-0.224-0.221-0.471-0.273-0.717c-0.019-0.155-0.033-0.356-0.037-0.63
			l-0.094-8.444l2.367,2.642l2.435-2.761l0.031-0.004l0.094,8.513c0.004,0.287-0.015,0.503-0.023,0.656
			c-0.049,0.255-0.12,0.492-0.264,0.697l2.077-0.023c-0.122-0.224-0.219-0.471-0.272-0.717
			C99.22,43.848,99.206,43.646,99.202,43.372"/>
		<path fill="#FFFFFF" d="M151.571,46.055c-0.264,0.078-0.924,0.289-0.924,0.289s-2.143,1.343-2.261,1.406l-2.907,5.873
			c-0.119,0.238-0.209,0.419-0.25,0.572c-0.069,0.245-0.11,0.502-0.094,0.753l-1.857-0.919c0.216-0.12,0.403-0.287,0.541-0.497
			c0.098-0.126,0.207-0.315,0.332-0.566l2.875-5.803c-0.036-0.104-0.281-2.594-0.281-2.594s-0.197-0.619-0.267-0.863
			c-0.141-0.418-0.296-0.772-0.484-1.057l2.497,1.237c-0.035,0.035-0.062,0.091-0.096,0.161c-0.118,0.238-0.078,2.088-0.078,2.088
			c0.062-0.021,1.391-1.055,1.502-1.139c0.091-0.078,0.167-0.196,0.235-0.335l2.5,1.237
			C152.352,45.885,152.031,45.935,151.571,46.055"/>
		<polygon fill="#FFFFFF" points="56.719,129.953 56.719,130.447 54.834,130.447 54.834,132.287 56.226,132.287 56.226,132.783 
			54.834,132.783 54.834,134.864 56.812,134.864 56.812,135.36 54.247,135.36 54.247,129.953 		"/>
		<polygon fill="#FFFFFF" points="60.497,129.953 60.497,130.447 59.389,130.447 59.389,135.36 58.802,135.36 58.802,130.447 
			57.694,130.447 57.694,129.953 		"/>
		<polygon fill="#FFFFFF" points="64.421,129.953 64.421,134.864 66.177,134.864 66.177,135.36 63.84,135.36 63.84,129.953 		"/>
		<path fill="#FFFFFF" d="M68.888,129.953l1.189,5.406h-0.583l-0.323-1.604h-1.38l-0.32,1.604h-0.586l1.193-5.406H68.888z
			 M67.876,133.262h1.215l-0.599-2.905h-0.017L67.876,133.262z"/>
		<path fill="#FFFFFF" d="M75.643,131.584c-0.077-0.855-0.344-1.214-0.802-1.214c-0.682,0-0.983,0.6-0.983,2.286
			s0.301,2.285,0.983,2.285c0.547,0,0.861-0.376,0.879-1.379h0.581c-0.015,1.199-0.538,1.873-1.46,1.873
			c-0.966,0-1.565-0.734-1.565-2.779c0-2.046,0.599-2.779,1.565-2.779c0.802,0,1.295,0.554,1.384,1.707L75.643,131.584
			L75.643,131.584z"/>
		<path fill="#FFFFFF" d="M79.308,129.953l1.19,5.406h-0.583l-0.325-1.604h-1.378l-0.32,1.604h-0.586l1.193-5.406H79.308z
			 M78.298,133.262h1.213l-0.6-2.905h-0.015L78.298,133.262z"/>
		<polygon fill="#FFFFFF" points="81.622,129.953 83.944,129.953 83.944,130.447 82.204,130.447 82.204,132.287 83.511,132.287 
			83.511,132.783 82.204,132.783 82.204,135.36 81.622,135.36 		"/>
		<polygon fill="#FFFFFF" points="87.569,129.953 87.569,130.447 85.679,130.447 85.679,132.287 87.074,132.287 87.074,132.783 
			85.679,132.783 85.679,134.864 87.657,134.864 87.657,135.36 85.096,135.36 85.096,129.953 		"/>
		<polygon fill="#FFFFFF" points="91.342,129.953 91.342,130.447 90.234,130.447 90.234,135.36 89.651,135.36 89.651,130.447 
			88.543,130.447 88.543,129.953 		"/>
		<polygon fill="#FFFFFF" points="94.931,129.953 94.931,130.447 93.046,130.447 93.046,132.287 94.437,132.287 94.437,132.783 
			93.046,132.783 93.046,134.864 95.024,134.864 95.024,135.36 92.459,135.36 92.459,129.953 		"/>
		<path fill="#FFFFFF" d="M96.346,129.953h1.308c0.865,0,1.481,0.507,1.481,1.4c0,0.607-0.267,1.116-0.87,1.327l0.915,2.679h-0.612
			l-0.87-2.562l-0.764,0.033v2.529h-0.588V129.953z M96.934,132.32h0.51c0.837,0,1.108-0.332,1.108-0.938
			c0-0.608-0.271-0.935-1.108-0.935h-0.51V132.32z"/>
		<rect x="100.705" y="129.953" fill="#FFFFFF" width="0.582" height="5.406"/>
		<path fill="#FFFFFF" d="M104.454,129.953l1.193,5.406h-0.588l-0.318-1.604h-1.38l-0.324,1.604h-0.582l1.189-5.406H104.454z
			 M103.442,133.262h1.214l-0.599-2.905h-0.016L103.442,133.262z"/>
		<path fill="#FFFFFF" d="M108.992,129.953H110c1.137,0,1.825,0.627,1.825,2.703c0,2.074-0.688,2.703-1.825,2.703h-1.007
			L108.992,129.953L108.992,129.953z M109.579,134.864h0.316c0.854,0,1.348-0.358,1.348-2.208c0-1.849-0.494-2.209-1.348-2.209
			h-0.316V134.864z"/>
		<polygon fill="#FFFFFF" points="115.772,129.953 115.772,130.447 113.883,130.447 113.883,132.287 115.277,132.287 
			115.277,132.783 113.883,132.783 113.883,134.864 115.862,134.864 115.862,135.36 113.299,135.36 113.299,129.953 		"/>
		<polygon fill="#FFFFFF" points="119.996,129.953 119.996,134.864 121.75,134.864 121.75,135.36 119.414,135.36 119.414,129.953 		
			"/>
		<polygon fill="#FFFFFF" points="122.965,129.953 122.965,130.701 122.516,131.779 122.289,131.779 122.637,130.658 
			122.333,130.658 122.333,129.953 		"/>
		<path fill="#FFFFFF" d="M125.145,129.953v3.969c0,0.546,0.159,1.019,0.794,1.019c0.639,0,0.792-0.473,0.792-1.019v-3.969h0.587
			v3.985c0,0.868-0.405,1.497-1.379,1.497c-0.976,0-1.38-0.629-1.38-1.497v-3.985H125.145z"/>
		<path fill="#FFFFFF" d="M130.802,131.345c-0.045-0.554-0.272-0.974-0.835-0.974c-0.45,0-0.74,0.301-0.74,0.712
			c0,1.22,2.173,1.237,2.173,2.972c0,0.863-0.494,1.381-1.388,1.381c-0.845,0-1.356-0.625-1.371-1.53h0.541
			c0.013,0.64,0.312,1.036,0.891,1.036c0.485,0,0.801-0.316,0.801-0.893c0-1.228-2.172-1.369-2.172-2.914
			c0-0.764,0.525-1.258,1.302-1.258c0.781,0,1.29,0.526,1.334,1.468H130.802z"/>
		<rect x="132.8" y="129.953" fill="#FFFFFF" width="0.582" height="5.406"/>
		<polygon fill="#FFFFFF" points="135.817,129.953 137.213,133.938 137.225,133.938 137.225,129.953 137.812,129.953 
			137.812,135.36 137.18,135.36 135.505,130.658 135.49,130.658 135.49,135.36 134.902,135.36 134.902,129.953 		"/>
		<polygon fill="#FFFFFF" points="141.759,129.953 141.759,130.447 139.87,130.447 139.87,132.287 141.265,132.287 141.265,132.783 
			139.87,132.783 139.87,134.864 141.849,134.864 141.849,135.36 139.287,135.36 139.287,129.953 		"/>
		<path fill="#FFFFFF" d="M4.24,4.467L2.589,6.208h5.594l3.479-1.733V4.467H76.53c0.509,0.018,1.032,0.031,1.572,0.031
			c4.251,0,9.167,0.884,14.623,1.007h0.171c2.562,0,4.143-0.42,4.682-1.038h0.47c0.324,0.649,1.521,1.16,3.353,1.16
			c3.567,0,8.086-0.774,13.599-1.16h68.464l-2.571,3.643l12.609-4.055L180.893,0l2.571,3.642h-68.619
			c-6.518-0.61-10.786-1.062-12.831-1.062c-2.083,0-3.447,0.449-3.894,1.062h-0.394c-0.254-0.629-1.262-1.086-2.617-1.086
			c-0.271,0-0.787-0.049-1.573-0.074c-3.703,0.156-7.326,0.75-10.805,1.16H11.662V3.634L8.183,1.902H2.589l1.651,1.74V4.467z"/>
		<path fill="#FFFFFF" d="M190.398,112.686H175.28V91.024h15.118v-6.348H175.28v-8.115h12.435c2.421,0,3.729,0.523,5.629,1.766
			v-8.049h-25.655c1.047,1.701,1.308,2.487,1.308,5.759v37.238c0,3.271-0.326,4.384-1.308,5.758h28.403v-8.05
			C194.193,112.293,192.688,112.686,190.398,112.686"/>
		<path fill="#FFFFFF" d="M70.376,119.492c-1.114-1.375-1.31-3.534-1.31-5.824V76.037c0-3.271,0.261-4.057,1.244-5.759h-8.901
			c1.047,1.702,1.375,2.488,1.375,5.759v32.329c-9.163-6.217-16.427-13.481-16.427-24.737c0-3.141,0.197-8.05,5.367-13.351H41.317
			c1.441,5.366-1.766,6.414-1.766,14.071c0,15.668,13.026,26.908,30.631,35.213C70.224,119.582,70.376,119.492,70.376,119.492"/>
		<path fill="#FFFFFF" d="M61.658,103.097v5.97c-4.628-3.141-8.77-6.549-11.738-10.604l-11.626-9.551
			c0.622,3.238,2.571,6.613,4.069,9.318c0.932,1.683,2.735,4.125,3.436,5.048c5.489,7.239,12.985,12.154,23.385,17.046l1.192-0.832
			c-1.114-1.374-2.435-2.833-2.435-5.123v-8.792L61.658,103.097z"/>
		<path d="M61.256,102.179v5.97c-4.628-3.141-8.77-6.549-11.738-10.603l-9.746-3.848c4.12,10.863,15.156,19.192,29.01,25.708
			l0.778-0.53c-1.114-1.375-2.021-3.135-2.021-5.425v-8.792L61.256,102.179z"/>
		<path fill="#FFFFFF" d="M96.093,88.667c-4.122-3.861-8.246-6.936-8.704-10.275c-0.261-1.962,1.375-3.141,3.273-3.141
			c1.635,0,2.879,0.982,4.778,2.618l4.122-5.562c-1.374-0.589-2.028-0.982-3.076-1.506c-1.702-0.785-3.599-1.439-6.152-1.439
			c-5.758,0-10.013,3.796-9.816,9.03c0.262,6.021,5.563,10.407,9.882,14.332c6.086,5.433,7.983,8.509,8.311,11.716
			c0.589,5.496-3.337,8.572-8.377,8.704c-3.992,0-8.311-2.094-10.405-5.498l-5.105,7.134c2.029,0.784,3.142,1.438,4.319,2.027
			c3.732,1.833,7.264,2.946,10.733,2.946c10.078,0,16.688-6.348,16.426-14.92C106.106,99.204,102.507,94.753,96.093,88.667"/>
		<path fill="#FFFFFF" d="M159.508,70.278h-8.9c1.112,1.701,1.375,2.487,1.375,5.759v14.791h-0.068l-11.124-15.642
			c-0.589-0.915-1.047-1.962-1.047-3.076c0-0.719,0.196-1.308,0.393-1.832h-10.144c1.047,1.701,1.244,2.487,1.244,5.759v37.238
			c0,3.271-0.131,4.056-1.244,5.758h8.835c-1.048-1.702-1.243-2.487-1.243-5.758V81.403l14.398,19.961v11.911
			c0,3.271-0.329,4.056-1.375,5.758h8.9c-0.916-1.702-1.243-2.487-1.243-5.758V76.037C158.265,72.765,158.525,71.979,159.508,70.278
			"/>
		<path fill="#FFFFFF" d="M153.82,85.407v5.421h-0.066l-11.125-15.642c-0.589-0.915-1.048-1.963-1.048-3.076
			c0-0.719,0.196-1.309,0.394-1.832H131.83c0.824,1.338,1.12,2.115,1.21,3.975c4.347,1.202,8.737,5.035,7.792,9.104l12.988,18.007
			v1.681l1.877,1.019V86.822L153.82,85.407z"/>
		<path d="M152.539,84.639v5.421h-0.066l-11.125-15.642c-0.589-0.916-1.048-1.962-1.048-3.076c0-0.719,0.197-1.308,0.394-1.832
			H130.55c0.823,1.338,1.119,2.115,1.209,3.975c4.348,1.202,8.738,5.035,7.792,9.104l12.988,18.007v1.681l1.878,1.019V86.054
			L152.539,84.639z"/>
		<path fill="#FFFFFF" d="M120.962,70.278h-8.835c0.983,1.701,1.244,2.487,1.244,5.759v37.238c0,3.271-0.131,4.056-1.244,5.758
			h8.835c-1.111-1.702-1.242-2.487-1.242-5.758V76.037C119.72,72.765,119.98,71.979,120.962,70.278"/>
		<path fill="#FFFFFF" d="M10.233,112.686V76.037c0-2.224,0.785-4.058,1.701-5.759H2.641c1.112,1.701,1.242,3.535,1.242,5.759
			v37.238c0,4.056-0.523,4.515-1.242,5.758h28.206v-8.05c-2.095,1.114-3.993,1.703-5.694,1.703
			C25.153,112.686,10.233,112.686,10.233,112.686z"/>
		<path fill="#FFFFFF" d="M27.509,70.343c-2.159,0-3.862,1.701-3.862,3.862c0,1.701,1.113,3.141,2.683,3.663
			c-0.13,0.656-0.261,1.179-0.588,2.095c-0.392,1.048-0.785,1.832-1.048,2.487l0.066,0.066c2.618-1.767,6.544-4.778,6.544-8.311
			C31.304,72.044,29.603,70.343,27.509,70.343"/>
		<path d="M166.973,118.287c0.982-1.375,1.309-2.487,1.309-5.759V75.291c0-3.272-0.262-4.058-1.309-5.759h25.655v8.049
			c-1.898-1.243-3.208-1.767-5.629-1.767h-12.435v8.116h15.119v6.347h-15.119v21.663h15.119c2.289,0,3.795-0.393,5.693-1.703v8.05
			C195.376,118.287,166.973,118.287,166.973,118.287z M40.602,69.532h10.407c-5.17,5.301-5.368,10.21-5.368,13.35
			c0,11.256,7.265,18.52,16.427,24.737V75.291c0-3.272-0.327-4.058-1.375-5.759h8.901c-0.982,1.701-1.243,2.487-1.243,5.759v37.63
			c0,2.29,0.196,4.45,1.309,5.824l-0.066,0.131c-17.669-8.312-30.758-19.568-30.758-35.274
			C38.836,75.945,42.042,74.898,40.602,69.532 M89.162,119.007c-3.47,0-7.003-1.113-10.733-2.946
			c-1.178-0.589-2.29-1.243-4.32-2.027l5.105-7.134c2.094,3.404,6.414,5.498,10.406,5.498c5.039-0.132,8.965-3.208,8.376-8.704
			c-0.328-3.207-2.224-6.283-8.312-11.716c-4.318-3.925-9.618-8.311-9.881-14.332c-0.197-5.234,4.058-9.031,9.817-9.031
			c2.552,0,4.449,0.654,6.152,1.44c1.047,0.524,1.7,0.917,3.075,1.506l-4.123,5.562c-1.898-1.636-3.14-2.618-4.776-2.618
			c-1.899,0-3.536,1.179-3.273,3.141c0.458,3.338,4.58,6.414,8.704,10.275c6.413,6.086,10.012,10.537,10.209,16.166
			C105.849,112.659,99.239,119.007,89.162,119.007 M149.892,118.287c1.048-1.702,1.375-2.487,1.375-5.759v-11.911L136.87,80.656
			v31.872c0,3.272,0.195,4.057,1.243,5.759h-8.835c1.113-1.702,1.244-2.487,1.244-5.759V75.291c0-3.272-0.197-4.058-1.244-5.759
			h10.145c-0.198,0.523-0.394,1.112-0.394,1.831c0,1.114,0.458,2.161,1.047,3.076l11.125,15.643h0.066V75.291
			c0-3.272-0.262-4.058-1.375-5.759h8.901c-0.982,1.701-1.243,2.487-1.243,5.759v37.237c0,3.272,0.326,4.057,1.243,5.759H149.892z
			 M111.412,118.287c1.113-1.702,1.243-2.487,1.243-5.759V75.291c0-3.272-0.261-4.058-1.243-5.759h8.835
			c-0.982,1.701-1.243,2.487-1.243,5.759v37.237c0,3.272,0.131,4.057,1.243,5.759H111.412z M1.925,118.287
			c0.721-1.244,1.244-1.702,1.244-5.759V75.291c0-2.225-0.131-4.058-1.244-5.759h9.294c-0.917,1.701-1.701,3.534-1.701,5.759v36.649
			h14.92c1.701,0,3.599-0.59,5.693-1.703v8.05H1.925z M30.59,73.459c0-2.161-1.702-3.862-3.796-3.862
			c-2.159,0-3.862,1.701-3.862,3.862c0,1.701,1.114,3.141,2.684,3.664c-0.131,0.655-0.261,1.178-0.59,2.094
			c-0.391,1.048-0.784,1.833-1.046,2.486l0.066,0.067C26.662,80.003,30.59,76.992,30.59,73.459"/>
		<path fill="#FFFFFF" d="M165.048,116.362c0.981-1.375,1.307-2.487,1.307-5.759V73.365c0-3.271-0.26-4.057-1.307-5.758h25.654
			v8.049c-1.898-1.243-3.208-1.767-5.629-1.767h-12.435v8.116h15.118v6.347h-15.118v21.662h15.118c2.291,0,3.796-0.393,5.694-1.702
			v8.05C193.45,116.362,165.048,116.362,165.048,116.362z M38.676,67.607h10.407c-5.17,5.3-5.367,10.209-5.367,13.351
			c0,11.255,7.264,18.519,16.426,24.736V73.365c0-3.271-0.328-4.057-1.375-5.758h8.901c-0.982,1.701-1.243,2.487-1.243,5.758v37.631
			c0,2.29,0.196,4.45,1.309,5.824l-0.066,0.131C49.998,108.64,36.91,97.383,36.91,81.677C36.91,74.02,40.116,72.973,38.676,67.607
			 M87.236,117.081c-3.469,0-7.003-1.112-10.734-2.945c-1.177-0.589-2.289-1.243-4.318-2.028l5.104-7.133
			c2.094,3.404,6.413,5.498,10.406,5.498c5.04-0.132,8.965-3.208,8.376-8.705c-0.328-3.206-2.225-6.282-8.311-11.714
			c-4.319-3.927-9.619-8.312-9.881-14.333c-0.198-5.234,4.056-9.031,9.816-9.031c2.552,0,4.449,0.654,6.151,1.44
			c1.048,0.524,1.702,0.917,3.077,1.506l-4.123,5.561c-1.899-1.635-3.141-2.617-4.777-2.617c-1.899,0-3.535,1.179-3.273,3.141
			c0.457,3.339,4.581,6.414,8.704,10.275c6.412,6.086,10.012,10.537,10.21,16.165C103.924,110.734,97.313,117.081,87.236,117.081
			 M147.966,116.362c1.048-1.702,1.376-2.487,1.376-5.759V98.692l-14.399-19.96v31.871c0,3.272,0.197,4.057,1.244,5.759h-8.835
			c1.113-1.702,1.244-2.487,1.244-5.759V73.365c0-3.271-0.197-4.057-1.244-5.758h10.144c-0.197,0.523-0.393,1.112-0.393,1.831
			c0,1.114,0.459,2.161,1.047,3.076l11.125,15.642h0.067V73.365c0-3.271-0.262-4.057-1.376-5.758h8.901
			c-0.982,1.701-1.243,2.487-1.243,5.758v37.238c0,3.272,0.326,4.057,1.243,5.759H147.966z M109.487,116.362
			c1.112-1.702,1.242-2.487,1.242-5.759V73.365c0-3.271-0.261-4.057-1.242-5.758h8.834c-0.982,1.701-1.243,2.487-1.243,5.758v37.238
			c0,3.272,0.131,4.057,1.243,5.759H109.487z M0,116.362c0.719-1.244,1.243-1.702,1.243-5.759V73.365
			c0-2.224-0.13-4.057-1.243-5.758h9.293c-0.917,1.701-1.701,3.534-1.701,5.758v36.649h14.92c1.701,0,3.599-0.589,5.693-1.702v8.05
			C28.205,116.362,0,116.362,0,116.362z M28.664,71.534c0-2.161-1.701-3.862-3.796-3.862c-2.159,0-3.861,1.701-3.861,3.862
			c0,1.701,1.113,3.141,2.682,3.663c-0.13,0.655-0.261,1.179-0.589,2.095c-0.391,1.048-0.784,1.833-1.046,2.487l0.066,0.066
			C24.736,78.078,28.664,75.067,28.664,71.534"/>
	</g>
</g>
</svg>
