<?xml version="1.0" encoding="utf-8"?>
<!-- Generator: Adobe Illustrator 17.0.0, SVG Export Plug-In . SVG Version: 6.00 Build 0)  -->
<!DOCTYPE svg PUBLIC "-//W3C//DTD SVG 1.1//EN" "http://www.w3.org/Graphics/SVG/1.1/DTD/svg11.dtd">
<svg version="1.1" id="Layer_1" xmlns="http://www.w3.org/2000/svg" xmlns:xlink="http://www.w3.org/1999/xlink" x="0px" y="0px"
	 width="194.156px" height="46.145px" viewBox="0 0 194.156 46.145" enable-background="new 0 0 194.156 46.145"
	 xml:space="preserve">
<g>
	<rect x="0" y="44.825" fill="#FFFFFF" width="194.156" height="1.32"/>
	<rect x="0" y="29.876" fill="#FFFFFF" width="194.156" height="1.32"/>
	<path fill="#FFFFFF" d="M2.717,37.763h1.876v3.383H4.039l-0.213-0.5c-0.342,0.407-0.619,0.592-1.155,0.592
		c-0.906,0-1.534-0.647-1.534-1.71V36.09c0-0.942,0.554-1.71,1.682-1.71c1.146,0,1.719,0.832,1.719,1.83v0.425h-1.09
		c0-0.998-0.204-1.256-0.657-1.256c-0.277,0-0.508,0.166-0.508,0.73v3.428c0,0.426,0.139,0.703,0.536,0.703
		c0.462,0,0.629-0.259,0.629-0.924v-0.647H2.717V37.763z"/>
	<rect x="6.892" y="34.473" fill="#FFFFFF" width="1.146" height="6.672"/>
	<polygon fill="#FFFFFF" points="10.281,41.146 10.281,34.474 13.479,34.474 13.479,35.472 11.427,35.472 11.427,37.191 
		12.961,37.191 12.961,38.189 11.427,38.189 11.427,41.146 	"/>
	<polygon fill="#FFFFFF" points="16.027,35.472 14.918,35.472 14.918,34.474 18.281,34.474 18.281,35.472 17.173,35.472 
		17.173,41.146 16.027,41.146 	"/>
	<path fill="#FFFFFF" d="M22.022,36.118c-0.046-0.573-0.351-0.739-0.61-0.739c-0.37,0-0.573,0.24-0.573,0.656
		c0,1.136,2.329,1.682,2.329,3.493c0,1.1-0.739,1.709-1.812,1.709c-1.063,0-1.672-0.849-1.719-1.847l1.091-0.157
		c0.046,0.674,0.314,1.007,0.684,1.007c0.397,0,0.665-0.213,0.665-0.61c0-1.322-2.329-1.673-2.329-3.586
		c0-1.063,0.647-1.664,1.775-1.664c0.933,0,1.488,0.675,1.59,1.618L22.022,36.118z"/>
	<rect x="27.895" y="38.235" fill="#FFFFFF" width="2.264" height="0.85"/>
	<path fill="#FFFFFF" d="M37.438,36.701v-0.518c0-0.564-0.258-0.803-0.555-0.803c-0.462,0-0.609,0.239-0.609,0.739v3.382
		c0,0.499,0.147,0.739,0.609,0.739c0.416,0,0.555-0.24,0.555-0.674v-0.804h1.146v0.767c0,0.943-0.555,1.709-1.701,1.709
		c-1.201,0-1.755-0.766-1.755-1.709v-3.438c0-0.943,0.554-1.71,1.755-1.71c1.146,0,1.701,0.832,1.701,1.83v0.49H37.438z"/>
	<polygon fill="#FFFFFF" points="40.669,41.146 40.669,34.474 41.815,34.474 41.815,40.148 43.617,40.148 43.617,41.146 	"/>
	<path fill="#FFFFFF" d="M45.297,36.091c0-0.943,0.555-1.71,1.756-1.71s1.756,0.767,1.756,1.71v3.438
		c0,0.942-0.555,1.709-1.756,1.709s-1.756-0.767-1.756-1.709V36.091z M46.443,39.501c0,0.499,0.148,0.739,0.61,0.739
		s0.61-0.24,0.61-0.739v-3.383c0-0.499-0.148-0.739-0.61-0.739s-0.61,0.24-0.61,0.739V39.501z"/>
	<polygon fill="#FFFFFF" points="51.56,35.472 50.451,35.472 50.451,34.474 53.814,34.474 53.814,35.472 52.706,35.472 
		52.706,41.146 51.56,41.146 	"/>
	<polygon fill="#FFFFFF" points="55.466,41.146 55.466,34.474 56.612,34.474 56.612,37.191 57.832,37.191 57.832,34.474 
		58.978,34.474 58.978,41.146 57.832,41.146 57.832,38.189 56.612,38.189 56.612,41.146 	"/>
	<rect x="61.221" y="34.473" fill="#FFFFFF" width="1.146" height="6.672"/>
	<polygon fill="#FFFFFF" points="64.61,41.146 64.61,34.474 65.672,34.474 67.068,38.29 67.087,38.29 67.087,34.474 68.122,34.474 
		68.122,41.146 67.123,41.146 65.663,36.978 65.645,36.978 65.645,41.146 	"/>
	<path fill="#FFFFFF" d="M71.789,37.763h1.876v3.383H73.11l-0.212-0.5c-0.342,0.407-0.619,0.592-1.155,0.592
		c-0.906,0-1.534-0.647-1.534-1.71V36.09c0-0.942,0.554-1.71,1.682-1.71c1.145,0,1.719,0.832,1.719,1.83v0.425h-1.091
		c0-0.998-0.203-1.256-0.657-1.256c-0.277,0-0.507,0.166-0.507,0.73v3.428c0,0.426,0.138,0.703,0.536,0.703
		c0.462,0,0.628-0.259,0.628-0.924v-0.647h-0.73V37.763z"/>
	<rect x="78.687" y="38.235" fill="#FFFFFF" width="2.265" height="0.85"/>
	<path fill="#FFFFFF" d="M88.008,36.118c-0.046-0.573-0.351-0.739-0.61-0.739c-0.369,0-0.573,0.24-0.573,0.656
		c0,1.136,2.329,1.682,2.329,3.493c0,1.1-0.739,1.709-1.812,1.709c-1.062,0-1.672-0.849-1.719-1.847l1.091-0.157
		c0.047,0.674,0.315,1.007,0.684,1.007c0.397,0,0.665-0.213,0.665-0.61c0-1.322-2.329-1.673-2.329-3.586
		c0-1.063,0.648-1.664,1.775-1.664c0.933,0,1.487,0.675,1.589,1.618L88.008,36.118z"/>
	<polygon fill="#FFFFFF" points="91.665,35.472 90.556,35.472 90.556,34.474 93.919,34.474 93.919,35.472 92.811,35.472 
		92.811,41.146 91.665,41.146 	"/>
	<path fill="#FFFFFF" d="M96.072,41.146h-1.109l1.229-6.673h1.424l1.229,6.673h-1.109l-0.204-1.479h-1.256L96.072,41.146z
		 M96.442,38.669h0.924l-0.453-2.865h-0.019L96.442,38.669z"/>
	<polygon fill="#FFFFFF" points="100.812,35.472 99.703,35.472 99.703,34.474 103.067,34.474 103.067,35.472 101.958,35.472 
		101.958,41.146 100.812,41.146 	"/>
	<rect x="104.876" y="34.473" fill="#FFFFFF" width="1.146" height="6.672"/>
	<path fill="#FFFFFF" d="M108.265,36.091c0-0.943,0.555-1.71,1.756-1.71s1.756,0.767,1.756,1.71v3.438
		c0,0.942-0.555,1.709-1.756,1.709s-1.756-0.767-1.756-1.709V36.091z M109.411,39.501c0,0.499,0.148,0.739,0.61,0.739
		s0.61-0.24,0.61-0.739v-3.383c0-0.499-0.148-0.739-0.61-0.739s-0.61,0.24-0.61,0.739V39.501z"/>
	<polygon fill="#FFFFFF" points="113.862,41.146 113.862,34.474 114.925,34.474 116.321,38.29 116.339,38.29 116.339,34.474 
		117.374,34.474 117.374,41.146 116.376,41.146 114.916,36.978 114.897,36.978 114.897,41.146 	"/>
	<polygon fill="#FFFFFF" points="119.46,41.146 119.46,34.474 122.528,34.474 122.528,35.472 120.606,35.472 120.606,37.191 
		122.084,37.191 122.084,38.189 120.606,38.189 120.606,40.148 122.657,40.148 122.657,41.146 	"/>
	<path fill="#FFFFFF" d="M125.686,41.146h-1.146v-6.672h1.608c1.285,0,1.941,0.545,1.941,1.968c0,1.072-0.416,1.507-0.804,1.683
		l0.97,3.021h-1.164l-0.814-2.763c-0.147,0.019-0.387,0.028-0.591,0.028V41.146z M125.686,37.468h0.407
		c0.619,0,0.85-0.231,0.85-1.026c0-0.795-0.231-1.026-0.85-1.026h-0.407V37.468z"/>
	<polygon fill="#FFFFFF" points="132.043,41.146 130.897,41.146 130.897,38.374 129.511,34.474 130.675,34.474 131.479,37.015 
		131.498,37.015 132.265,34.474 133.429,34.474 132.043,38.374 	"/>
	<rect x="137.935" y="38.235" fill="#FFFFFF" width="2.264" height="0.85"/>
	<polygon fill="#FFFFFF" points="145.166,41.146 145.166,34.474 146.312,34.474 146.312,37.191 147.532,37.191 147.532,34.474 
		148.678,34.474 148.678,41.146 147.532,41.146 147.532,38.189 146.312,38.189 146.312,41.146 	"/>
	<path fill="#FFFFFF" d="M150.764,36.091c0-0.943,0.555-1.71,1.756-1.71s1.756,0.767,1.756,1.71v3.438
		c0,0.942-0.555,1.709-1.756,1.709s-1.756-0.767-1.756-1.709V36.091z M151.91,39.501c0,0.499,0.148,0.739,0.61,0.739
		c0.461,0,0.61-0.24,0.61-0.739v-3.383c0-0.499-0.149-0.739-0.61-0.739c-0.462,0-0.61,0.24-0.61,0.739V39.501z"/>
	<polygon fill="#FFFFFF" points="160.954,34.474 160.954,41.146 159.957,41.146 159.957,35.934 159.937,35.934 158.903,41.146 
		158.348,41.146 157.313,35.934 157.294,35.934 157.294,41.146 156.296,41.146 156.296,34.474 157.803,34.474 158.616,38.374 
		158.635,38.374 159.448,34.474 	"/>
	<polygon fill="#FFFFFF" points="162.984,41.146 162.984,34.474 166.053,34.474 166.053,35.472 164.13,35.472 164.13,37.191 
		165.609,37.191 165.609,38.189 164.13,38.189 164.13,40.148 166.182,40.148 166.182,41.146 	"/>
	<polygon fill="#FFFFFF" points="170.051,34.474 170.994,34.474 171.77,38.725 171.789,38.725 172.427,34.474 173.498,34.474 
		172.325,41.146 171.363,41.146 170.532,36.738 170.513,36.738 169.737,41.146 168.776,41.146 167.509,34.474 168.581,34.474 
		169.284,38.725 169.302,38.725 	"/>
	<path fill="#FFFFFF" d="M175.529,41.146h-1.109l1.229-6.673h1.423l1.229,6.673h-1.109l-0.203-1.479h-1.257L175.529,41.146z
		 M175.898,38.669h0.925l-0.453-2.865h-0.018L175.898,38.669z"/>
	<path fill="#FFFFFF" d="M181.089,41.146h-1.146v-6.672h1.608c1.285,0,1.941,0.545,1.941,1.968c0,1.072-0.416,1.507-0.804,1.683
		l0.97,3.021h-1.164l-0.814-2.763c-0.147,0.019-0.387,0.028-0.591,0.028V41.146z M181.089,37.468h0.407
		c0.619,0,0.85-0.231,0.85-1.026c0-0.795-0.231-1.026-0.85-1.026h-0.407V37.468z"/>
	<polygon fill="#FFFFFF" points="185.54,41.146 185.54,34.474 188.609,34.474 188.609,35.472 186.686,35.472 186.686,37.191 
		188.165,37.191 188.165,38.189 186.686,38.189 186.686,40.148 188.738,40.148 188.738,41.146 	"/>
	<path fill="#FFFFFF" d="M192.709,36.118c-0.046-0.573-0.351-0.739-0.61-0.739c-0.37,0-0.573,0.24-0.573,0.656
		c0,1.136,2.329,1.682,2.329,3.493c0,1.1-0.739,1.709-1.812,1.709c-1.063,0-1.672-0.849-1.719-1.847l1.091-0.157
		c0.046,0.674,0.314,1.007,0.684,1.007c0.397,0,0.665-0.213,0.665-0.61c0-1.322-2.329-1.673-2.329-3.586
		c0-1.063,0.647-1.664,1.775-1.664c0.933,0,1.488,0.675,1.59,1.618L192.709,36.118z"/>
	<rect x="0" y="14.949" fill="#FFFFFF" width="194.156" height="1.32"/>
	<rect x="0" y="0" fill="#FFFFFF" width="194.156" height="1.32"/>
	<path fill="#FFFFFF" d="M3.448,6.827V6.309c0-0.564-0.258-0.803-0.554-0.803c-0.462,0-0.61,0.239-0.61,0.739v3.382
		c0,0.499,0.148,0.739,0.61,0.739c0.416,0,0.554-0.24,0.554-0.675V8.887h1.146v0.768c0,0.942-0.555,1.709-1.7,1.709
		c-1.202,0-1.756-0.767-1.756-1.709V6.217c0-0.943,0.554-1.71,1.756-1.71c1.145,0,1.7,0.832,1.7,1.83v0.49H3.448z"/>
	<path fill="#FFFFFF" d="M7.419,6.217c0-0.943,0.555-1.71,1.756-1.71s1.756,0.767,1.756,1.71v3.438c0,0.942-0.555,1.709-1.756,1.709
		s-1.756-0.767-1.756-1.709V6.217z M8.565,9.627c0,0.499,0.148,0.739,0.61,0.739s0.61-0.24,0.61-0.739V6.244
		c0-0.499-0.148-0.739-0.61-0.739s-0.61,0.24-0.61,0.739V9.627z"/>
	<polygon fill="#FFFFFF" points="13.7,11.272 13.7,4.6 16.897,4.6 16.897,5.598 14.846,5.598 14.846,7.317 16.38,7.317 16.38,8.315 
		14.846,8.315 14.846,11.272 	"/>
	<polygon fill="#FFFFFF" points="19.463,11.272 19.463,4.6 22.661,4.6 22.661,5.598 20.609,5.598 20.609,7.317 22.143,7.317 
		22.143,8.315 20.609,8.315 20.609,11.272 	"/>
	<polygon fill="#FFFFFF" points="25.227,11.272 25.227,4.6 28.296,4.6 28.296,5.598 26.373,5.598 26.373,7.317 27.852,7.317 
		27.852,8.315 26.373,8.315 26.373,10.274 28.425,10.274 28.425,11.272 	"/>
	<polygon fill="#FFFFFF" points="30.99,11.272 30.99,4.6 34.058,4.6 34.058,5.598 32.136,5.598 32.136,7.317 33.615,7.317 
		33.615,8.315 32.136,8.315 32.136,10.274 34.188,10.274 34.188,11.272 	"/>
	<rect x="40.166" y="8.361" fill="#FFFFFF" width="2.264" height="0.85"/>
	<polygon fill="#FFFFFF" points="49.518,5.598 48.409,5.598 48.409,4.6 51.772,4.6 51.772,5.598 50.664,5.598 50.664,11.272 
		49.518,11.272 	"/>
	<polygon fill="#FFFFFF" points="54.108,11.272 54.108,4.6 57.176,4.6 57.176,5.598 55.254,5.598 55.254,7.317 56.732,7.317 
		56.732,8.315 55.254,8.315 55.254,10.274 57.305,10.274 57.305,11.272 	"/>
	<path fill="#FFFFFF" d="M60.537,11.273h-1.109L60.657,4.6h1.424l1.229,6.673h-1.109l-0.204-1.479h-1.256L60.537,11.273z
		 M60.907,8.796h0.924l-0.453-2.865h-0.019L60.907,8.796z"/>
	<rect x="69.287" y="8.361" fill="#FFFFFF" width="2.265" height="0.85"/>
	<path fill="#FFFFFF" d="M79.915,6.245c-0.046-0.573-0.351-0.739-0.61-0.739c-0.369,0-0.573,0.24-0.573,0.656
		c0,1.136,2.329,1.682,2.329,3.493c0,1.1-0.739,1.71-1.812,1.71c-1.062,0-1.672-0.85-1.719-1.848l1.091-0.157
		c0.047,0.674,0.315,1.007,0.684,1.007c0.397,0,0.665-0.213,0.665-0.61c0-1.322-2.329-1.673-2.329-3.586
		c0-1.063,0.648-1.664,1.775-1.664c0.933,0,1.487,0.675,1.589,1.618L79.915,6.245z"/>
	<path fill="#FFFFFF" d="M84.255,11.273h-1.109l1.23-6.673h1.423l1.229,6.673h-1.109l-0.204-1.479h-1.256L84.255,11.273z
		 M84.625,8.796h0.924l-0.452-2.865h-0.019L84.625,8.796z"/>
	<polygon fill="#FFFFFF" points="89.353,11.272 89.353,4.6 90.415,4.6 91.811,8.416 91.83,8.416 91.83,4.6 92.865,4.6 
		92.865,11.272 91.866,11.272 90.406,7.104 90.388,7.104 90.388,11.272 	"/>
	<path fill="#FFFFFF" d="M95.634,4.6h1.701c1.183,0,1.811,0.647,1.811,2.015v2.643c0,1.368-0.628,2.015-1.811,2.015h-1.701V4.6z
		 M96.78,10.33h0.397c0.611,0,0.823-0.231,0.823-0.934v-2.92c0-0.702-0.212-0.933-0.823-0.933H96.78V10.33z"/>
	<polygon fill="#FFFFFF" points="103.902,4.6 104.845,4.6 105.621,8.851 105.639,8.851 106.277,4.6 107.349,4.6 106.175,11.272 
		105.214,11.272 104.383,6.864 104.364,6.864 103.588,11.272 102.626,11.272 101.361,4.6 102.433,4.6 103.135,8.851 103.153,8.851 	
		"/>
	<rect x="109.895" y="4.6" fill="#FFFFFF" width="1.146" height="6.672"/>
	<path fill="#FFFFFF" d="M116.279,6.827V6.309c0-0.564-0.259-0.803-0.554-0.803c-0.463,0-0.61,0.239-0.61,0.739v3.382
		c0,0.499,0.147,0.739,0.61,0.739c0.415,0,0.554-0.24,0.554-0.675V8.887h1.146v0.768c0,0.942-0.555,1.709-1.7,1.709
		c-1.202,0-1.756-0.767-1.756-1.709V6.217c0-0.943,0.554-1.71,1.756-1.71c1.145,0,1.7,0.832,1.7,1.83v0.49H116.279z"/>
	<polygon fill="#FFFFFF" points="120.249,11.272 120.249,4.6 121.395,4.6 121.395,7.317 122.615,7.317 122.615,4.6 123.761,4.6 
		123.761,11.272 122.615,11.272 122.615,8.315 121.395,8.315 121.395,11.272 	"/>
	<polygon fill="#FFFFFF" points="126.53,11.272 126.53,4.6 129.598,4.6 129.598,5.598 127.676,5.598 127.676,7.317 129.155,7.317 
		129.155,8.315 127.676,8.315 127.676,10.274 129.728,10.274 129.728,11.272 	"/>
	<path fill="#FFFFFF" d="M134.382,6.245c-0.046-0.573-0.351-0.739-0.61-0.739c-0.369,0-0.573,0.24-0.573,0.656
		c0,1.136,2.329,1.682,2.329,3.493c0,1.1-0.739,1.71-1.811,1.71c-1.063,0-1.673-0.85-1.719-1.848l1.09-0.157
		c0.047,0.674,0.315,1.007,0.684,1.007c0.397,0,0.665-0.213,0.665-0.61c0-1.322-2.328-1.673-2.328-3.586
		c0-1.063,0.647-1.664,1.774-1.664c0.933,0,1.488,0.675,1.59,1.618L134.382,6.245z"/>
	<rect x="141.507" y="8.361" fill="#FFFFFF" width="2.265" height="0.85"/>
	<path fill="#FFFFFF" d="M149.749,4.6h1.701c1.183,0,1.811,0.647,1.811,2.015v2.643c0,1.368-0.628,2.015-1.811,2.015h-1.701V4.6z
		 M150.895,10.33h0.398c0.61,0,0.822-0.231,0.822-0.934v-2.92c0-0.702-0.212-0.933-0.822-0.933h-0.398V10.33z"/>
	<polygon fill="#FFFFFF" points="156.03,11.272 156.03,4.6 159.098,4.6 159.098,5.598 157.176,5.598 157.176,7.317 158.655,7.317 
		158.655,8.315 157.176,8.315 157.176,10.274 159.228,10.274 159.228,11.272 	"/>
	<path fill="#FFFFFF" d="M163.883,6.245c-0.046-0.573-0.352-0.739-0.611-0.739c-0.369,0-0.572,0.24-0.572,0.656
		c0,1.136,2.329,1.682,2.329,3.493c0,1.1-0.74,1.71-1.812,1.71c-1.063,0-1.673-0.85-1.719-1.848l1.091-0.157
		c0.046,0.674,0.314,1.007,0.683,1.007c0.398,0,0.666-0.213,0.666-0.61c0-1.322-2.329-1.673-2.329-3.586
		c0-1.063,0.647-1.664,1.775-1.664c0.933,0,1.487,0.675,1.589,1.618L163.883,6.245z"/>
	<path fill="#FFFFFF" d="M169.646,6.245c-0.046-0.573-0.351-0.739-0.61-0.739c-0.37,0-0.573,0.24-0.573,0.656
		c0,1.136,2.329,1.682,2.329,3.493c0,1.1-0.739,1.71-1.811,1.71c-1.064,0-1.673-0.85-1.719-1.848l1.09-0.157
		c0.046,0.674,0.314,1.007,0.684,1.007c0.397,0,0.665-0.213,0.665-0.61c0-1.322-2.329-1.673-2.329-3.586
		c0-1.063,0.647-1.664,1.775-1.664c0.933,0,1.488,0.675,1.59,1.618L169.646,6.245z"/>
	<polygon fill="#FFFFFF" points="173.321,11.272 173.321,4.6 176.39,4.6 176.39,5.598 174.467,5.598 174.467,7.317 175.946,7.317 
		175.946,8.315 174.467,8.315 174.467,10.274 176.519,10.274 176.519,11.272 	"/>
	<path fill="#FFFFFF" d="M180.23,11.272h-1.146V4.6h1.609c1.284,0,1.94,0.545,1.94,1.968c0,1.072-0.416,1.507-0.804,1.683
		l0.97,3.021h-1.164l-0.814-2.763c-0.147,0.019-0.387,0.028-0.591,0.028V11.272z M180.23,7.594h0.407c0.619,0,0.85-0.231,0.85-1.026
		c0-0.795-0.231-1.025-0.85-1.025h-0.407V7.594z"/>
	<polygon fill="#FFFFFF" points="186.031,5.598 184.922,5.598 184.922,4.6 188.285,4.6 188.285,5.598 187.177,5.598 187.177,11.272 
		186.031,11.272 	"/>
	<path fill="#FFFFFF" d="M192.71,6.245c-0.046-0.573-0.352-0.739-0.611-0.739c-0.369,0-0.572,0.24-0.572,0.656
		c0,1.136,2.329,1.682,2.329,3.493c0,1.1-0.74,1.71-1.812,1.71c-1.063,0-1.673-0.85-1.719-1.848l1.091-0.157
		c0.046,0.674,0.314,1.007,0.683,1.007c0.398,0,0.666-0.213,0.666-0.61c0-1.322-2.329-1.673-2.329-3.586
		c0-1.063,0.647-1.664,1.775-1.664c0.933,0,1.487,0.675,1.589,1.618L192.71,6.245z"/>
</g>
</svg>
